<?xml version="1.0" standalone="no"?>
<!DOCTYPE svg PUBLIC "-//W3C//DTD SVG 20010904//EN"
 "http://www.w3.org/TR/2001/REC-SVG-20010904/DTD/svg10.dtd">
<svg version="1.0" xmlns="http://www.w3.org/2000/svg"
 width="600.000000pt" height="600.000000pt" viewBox="0 0 600.000000 600.000000"
 preserveAspectRatio="xMidYMid meet">

<g transform="translate(0.000000,600.000000) scale(0.100000,-0.100000)"
fill="#000000" stroke="none">
<path d="M3670 4125 c-50 -14 -1219 -662 -1356 -752 -182 -119 -165 -391 31
-496 32 -17 58 -22 125 -22 l85 0 160 83 c88 45 278 142 422 214 230 116 269
132 322 136 75 5 140 -16 203 -66 27 -20 288 -275 582 -565 457 -450 543 -531
591 -553 101 -46 167 -43 553 28 l172 31 0 759 c0 640 -2 758 -14 758 -7 0
-191 -39 -407 -86 -431 -94 -448 -95 -538 -49 -25 13 -176 134 -336 270 -315
266 -382 311 -485 320 -34 3 -76 -1 -110 -10z"/>
<path d="M2369 4111 c-167 -23 -459 -151 -754 -331 -204 -125 -266 -146 -394
-137 -79 5 -167 31 -519 155 l-172 61 0 -874 0 -874 113 -35 c177 -55 157 -57
194 18 102 207 344 330 583 296 165 -23 306 -126 376 -274 35 -74 38 -77 108
-114 96 -50 172 -128 219 -224 36 -74 40 -78 106 -113 94 -49 182 -142 226
-237 38 -82 46 -91 129 -133 108 -55 197 -160 235 -276 7 -20 15 -79 20 -130
9 -106 25 -148 82 -213 56 -64 134 -100 203 -94 73 6 138 46 173 106 36 61 38
146 5 208 -12 23 -89 112 -172 198 -110 116 -150 163 -150 181 0 53 39 25 250
-182 117 -115 222 -214 236 -221 71 -38 188 -18 249 43 63 64 81 177 39 256
-8 17 -86 105 -172 196 -161 169 -218 241 -203 256 17 17 57 -17 261 -218 247
-244 292 -271 402 -245 104 25 179 133 164 237 -10 74 -40 115 -221 304 -163
171 -190 208 -165 224 20 12 70 -28 240 -193 96 -93 190 -176 207 -186 88 -45
184 -28 254 44 70 72 83 167 34 259 -7 14 -245 256 -527 538 -541 540 -547
545 -651 559 -71 10 -137 -11 -346 -107 -391 -181 -468 -209 -577 -209 -201 0
-399 155 -458 359 -18 62 -21 194 -5 260 29 127 118 238 261 327 50 30 208
123 352 206 143 83 263 153 265 155 12 9 -60 67 -128 102 -119 62 -253 88
-372 72z"/>
<path d="M1222 2139 c-31 -12 -77 -43 -112 -76 -166 -154 -189 -404 -44 -489
60 -36 113 -39 204 -15 41 11 76 18 78 17 1 -2 -9 -34 -23 -71 -30 -82 -32
-135 -4 -192 26 -53 68 -89 122 -104 40 -11 103 -3 214 27 l22 6 -19 -51 c-27
-70 -35 -150 -20 -195 37 -115 149 -153 313 -107 37 10 67 16 67 12 0 -3 -14
-44 -30 -91 -33 -95 -35 -108 -19 -165 23 -82 125 -145 233 -145 104 0 232 58
307 137 66 70 92 129 93 214 1 165 -130 281 -301 266 l-61 -6 9 32 c38 134
-37 284 -162 321 -29 9 -77 16 -106 16 l-53 0 0 58 c0 177 -103 282 -277 282
l-53 0 0 73 c0 118 -51 201 -150 246 -60 27 -157 27 -228 0z"/>
</g>
</svg>
