<svg id="Layer_1" data-name="Layer 1" xmlns="http://www.w3.org/2000/svg" viewBox="0 0 200 200"><defs><style>.cls-1{fill:none;}.cls-2{fill:#f37321;}</style></defs><title>getting-started-icon-hand-outline-orange</title><path class="cls-1" d="M100,196a96,96,0,1,1,96-96A96.11,96.11,0,0,1,100,196Z"/><path class="cls-2" d="M100,5.5A94.5,94.5,0,1,1,5.5,100,94.61,94.61,0,0,1,100,5.5m0-3A97.5,97.5,0,1,0,197.5,100,97.56,97.56,0,0,0,100,2.5Z"/><path class="cls-2" d="M170.28,109.27,159.22,73.08l-1.39.49-3.68,1.29c-3.35,1.17-8.5,3-13.23,4.59s-9.07,3.1-10.74,3.61a13.14,13.14,0,0,1-3.42.72,1,1,0,0,1-.5-.08l-.22-.13c-.11-.07-.26-.18-.46-.29l-.83-.44c-2.88-1.53-12.13-6.4-15.1-8h0a9.82,9.82,0,0,0-4.44-1.29,5.16,5.16,0,0,0-1.53.22,7.35,7.35,0,0,0-.84.33h0l-1.64.74-.64.29a13.47,13.47,0,0,0-5.94-1.51,8,8,0,0,0-3.63.8h0L80.76,79.27l-6,2.86-2,1-.62.29-.31.15a4.36,4.36,0,0,1-.52.25,1.88,1.88,0,0,1-.65.1,6.37,6.37,0,0,1-2.19-.5c-2.92-1.11-25.51-9.5-25.51-9.5l-1.19-.44-.57,1.14,0,.1,0,.1-.61,1.78c-2.3,6.74-10.18,30-10.18,30L29.77,108l1.48.38.7.18c1.59.42,5.72,1.54,10.5,3A120.22,120.22,0,0,1,56.79,117l.3.14a4.94,4.94,0,0,0-.6,2.24,3.29,3.29,0,0,0,.25,1.3,2.93,2.93,0,0,0,.84,1.11h0l0,0h0c.24.2.54.43.91.7.58.42,1.29.92,1.88,1.34l1.21.83h0a3.56,3.56,0,0,0,4-.07,4.92,4.92,0,0,0,.4-.32c0,.07,0,.13,0,.2a3.49,3.49,0,0,0,.3,1.42,3.86,3.86,0,0,0,1,1.34h0c.87.71,1.68,1.35,2.3,1.84l.78.61.24.19.07.06h0l.16.16.21.1a6.64,6.64,0,0,0,.66.31,3.7,3.7,0,0,0,1.34.27,3.09,3.09,0,0,0,1.31-.29,3.42,3.42,0,0,0,.91-.66,4.1,4.1,0,0,0-.09.77,3.68,3.68,0,0,0,.31,1.48,4,4,0,0,0,1.06,1.42c.78.68,1.48,1.22,2,1.63l.66.5.2.15,0,0h0l.1.1.12.08a5.23,5.23,0,0,0,.87.46,4.33,4.33,0,0,0,1.65.35,3.34,3.34,0,0,0,1.39-.29,3.48,3.48,0,0,0,1.24-1h0l.06-.07c0,.12,0,.24,0,.37a3.65,3.65,0,0,0,.24,1.33,3.45,3.45,0,0,0,.89,1.29l0,0,0,0c.63.52,1.45,1.17,2.16,1.73l.91.71.29.23.07.06h0a1.88,1.88,0,0,0,.24.19,3.11,3.11,0,0,0,.83.38,4,4,0,0,0,1.15.17,3.8,3.8,0,0,0,1.45-.29,4.11,4.11,0,0,0,1.44-1l0,0,0,0a22.21,22.21,0,0,0,1.72-2.27l.23-.35,2,1.11,3.36,1.83h0a3.72,3.72,0,0,0,.65.35,7.31,7.31,0,0,0,1.53.41,11.46,11.46,0,0,0,1.84.15,9.58,9.58,0,0,0,4.75-1.14,5.86,5.86,0,0,0,2-1.84,5.53,5.53,0,0,0,.6-1.23,14.3,14.3,0,0,0,2.72.28,9.52,9.52,0,0,0,5.1-1.34,8.27,8.27,0,0,0,3.19-3.87,7.18,7.18,0,0,0,2.65.49,10.52,10.52,0,0,0,6-2,8.48,8.48,0,0,0,2.13-2.17,5.34,5.34,0,0,0,.88-2.48,11.86,11.86,0,0,0,3.75-1.09,8.23,8.23,0,0,0,3.22-2.77,9,9,0,0,0,1.43-5.14c0-.34,0-.69,0-1Zm-107.88,14c-.28-.19-3-2.06-3.66-2.63-1.88-1.5,1.41-6.1,3.75-4.79,0,0,2.44,1.6,3.66,2.53C67.65,119.6,65.21,125,62.4,123.26Zm12.17,5.36a2,2,0,0,1-2.75.29c-.29-.29-1.77-1.38-3.44-2.75a2.39,2.39,0,0,1-.2-3.34c.2-.2,2-2.46,3.34-3.83s2.65-.39,3.34.2c0,0,1.67,1.28,2.95,2.36a2.23,2.23,0,0,1,.2,2.95C77.82,124.78,75.65,127.34,74.57,128.62Zm9.27,5.78c-1.13,1.42-2.83.38-3.12.19s-1.42-1-2.83-2.27a2.27,2.27,0,0,1-.38-3.12c.28-.28,3.12-4,4.35-5.29a2,2,0,0,1,3-.19A35.36,35.36,0,0,1,88,126.36c1.32,1.13.19,2.55-.09,2.93S85,133.07,83.84,134.39Zm11.87,1.86a15.13,15.13,0,0,1-2.2,3.21,2.21,2.21,0,0,1-2.84.46c-.18-.18-2.11-1.65-3.21-2.57a2.35,2.35,0,0,1-.18-2.93c.28-.37,1.19-1.47,2.11-2.57s2.66-.55,3.21-.18l2.84,2C96.35,134.33,95.89,135.79,95.71,136.25Zm45-15.08a5.15,5.15,0,0,1-1.53,1.47,8.07,8.07,0,0,1-2.78,1.06,9.75,9.75,0,0,1-1.62.18l-19.29-14.42a1.42,1.42,0,1,0-1.7,2.27l19.48,14.56a2.44,2.44,0,0,1-.45,1.24,6.48,6.48,0,0,1-2.41,2,7.44,7.44,0,0,1-3.33.87,3.8,3.8,0,0,1-2.53-.83l-1.85-1.15-12.75-9a1.42,1.42,0,1,0-1.64,2.31L122,131.4a5.51,5.51,0,0,1-2.2,2.87,6.72,6.72,0,0,1-3.59.91,11.59,11.59,0,0,1-2.39-.26c-.31-.07-.55-.13-.72-.18l-.18-.06h0l-.19-.07-7.9-6.11a1.42,1.42,0,0,0-1.73,2.24l7.79,6a2.78,2.78,0,0,1-.31.66,3.46,3.46,0,0,1-1.76,1.29,7.68,7.68,0,0,1-2.61.42,8.16,8.16,0,0,1-1.76-.18,3.7,3.7,0,0,1-.55-.16l-.13-.06h0l-.09-.08-.13-.07-5.7-3.1a5,5,0,0,0,0-.61,3.4,3.4,0,0,0-.23-1.27,2.75,2.75,0,0,0-1-1.24L94.7,131l-1.17-.84,0,0h0a4.12,4.12,0,0,0-1.14-.5,5.31,5.31,0,0,0-1.44-.21,4.27,4.27,0,0,0-1.19.18l.18-.31a3.75,3.75,0,0,0,.48-1.76,3,3,0,0,0-.28-1.27,3.36,3.36,0,0,0-.8-1.05h0c-.71-.71-1.56-1.43-2.25-2s-1.2-.94-1.21-.95h0a4.28,4.28,0,0,0-.95-.58,3.68,3.68,0,0,0-1.49-.33,3.27,3.27,0,0,0-1.41.32,3.87,3.87,0,0,0-1.23,1h0l0,0h0c-.23.25-.5.56-.79.9A3.86,3.86,0,0,0,80,123a3.32,3.32,0,0,0-.26-1.3,3.59,3.59,0,0,0-.88-1.24l0,0,0,0c-1.34-1.13-3-2.44-3.05-2.44h0a5.63,5.63,0,0,0-1-.71,3.83,3.83,0,0,0-1.75-.45,3.25,3.25,0,0,0-1.29.26,3.78,3.78,0,0,0-1.18.82c-.6.6-1.23,1.31-1.79,2l-.41-.21s0,0,0-.05a3.66,3.66,0,0,0-.2-1.24,2.63,2.63,0,0,0-.81-1.17h0c-.7-.54-1.68-1.22-2.51-1.78l-1.48-1,0,0,0,0a3.35,3.35,0,0,0-1.64-.43,4.09,4.09,0,0,0-2,.57,5.67,5.67,0,0,0-.56.38l-1-.46a132.19,132.19,0,0,0-16.73-6.15c-3.36-1-6.21-1.81-7.85-2.25l5.88-17.35,3.07-9,.89-2.6,2.22.83C52,80.27,65.24,85.2,67.4,86a9.1,9.1,0,0,0,3.2.69,4.73,4.73,0,0,0,1.6-.26,6.48,6.48,0,0,0,.84-.38l.27-.13C75.59,84.84,90,78,92.21,77h0a5.14,5.14,0,0,1,2.37-.5,9.34,9.34,0,0,1,2.31.32l-.34.15-2.16,1-1.35.58a8.13,8.13,0,0,0-2.4,1.6,10.86,10.86,0,0,0-1,1l0,0,0,0L86.7,85.48c-1.55,2.28-3.27,4.82-4,6h0A4.21,4.21,0,0,0,82,93.66a3.36,3.36,0,0,0,.34,1.48,3.87,3.87,0,0,0,1,1.3,4,4,0,0,0,.49.34,36.39,36.39,0,0,0,3.88,2.65,4.05,4.05,0,0,0,2.07.61,3.44,3.44,0,0,0,1.5-.35A4.33,4.33,0,0,0,93.11,98l.06-.1c.29-.47,1.66-2.64,4.16-6.18a5.25,5.25,0,0,1,2.16-1.64,6.71,6.71,0,0,1,2.56-.48,8.92,8.92,0,0,1,2.54.38,5.29,5.29,0,0,1,1.55.71h0l35.48,25.84c0,.36.06.71.06,1A6.2,6.2,0,0,1,140.76,121.17ZM143,114,107.83,88.46h0a7.94,7.94,0,0,0-2.42-1.15,11.74,11.74,0,0,0-3.36-.5,9.53,9.53,0,0,0-3.65.69A8.1,8.1,0,0,0,95.08,90l0,0,0,0c-2.92,4.13-4.34,6.46-4.35,6.48l0,0v0l0,0a1.7,1.7,0,0,1-.35.38.72.72,0,0,1-.45.18,1.24,1.24,0,0,1-.63-.21c-1.05-.62-2-1.25-2.62-1.72l-.75-.56-.2-.15,0,0h0l-.12-.1-.12-.06a1.39,1.39,0,0,1-.33-.27.61.61,0,0,1-.18-.41,1.42,1.42,0,0,1,.26-.72c.68-1.07,2.4-3.61,3.94-5.87l2-3,.84-1.23a8.37,8.37,0,0,1,.71-.73,5.36,5.36,0,0,1,1.48-1c.42-.17,1.17-.5,2.12-.92L101,78.05l2-.9,1-.45h0a5.06,5.06,0,0,1,.55-.22,2.3,2.3,0,0,1,.7-.1,7.11,7.11,0,0,1,3.14,1L117.23,82l4.62,2.44,1.58.84.78.42.27.17a3.74,3.74,0,0,0,2.29.69,15.42,15.42,0,0,0,4.24-.85c1.19-.36,3.49-1.13,6.31-2.09,6.78-2.31,16.48-5.69,20.05-6.94l9.35,30.61Z"/></svg>