<?xml version="1.0" standalone="no"?>
<!DOCTYPE svg PUBLIC "-//W3C//DTD SVG 20010904//EN"
 "http://www.w3.org/TR/2001/REC-SVG-20010904/DTD/svg10.dtd">
<svg version="1.0" xmlns="http://www.w3.org/2000/svg"
 width="600.000000pt" height="600.000000pt" viewBox="0 0 600.000000 600.000000"
 preserveAspectRatio="xMidYMid meet">
<metadata>
Created by potrace 1.15, written by Peter Selinger 2001-2017
</metadata>
<g transform="translate(0.000000,600.000000) scale(0.100000,-0.100000)"
fill="#000000" stroke="none">
<path d="M3642 4124 c-40 -14 -1229 -679 -1333 -745 -146 -93 -172 -305 -54
-437 74 -82 187 -119 285 -92 24 7 204 95 400 196 415 214 464 236 541 237
116 1 113 3 720 -595 415 -410 565 -551 609 -576 80 -45 144 -54 273 -37 102
13 434 71 470 81 16 5 17 50 17 770 0 537 -3 764 -11 764 -6 0 -187 -39 -402
-86 -426 -93 -464 -97 -547 -56 -25 12 -178 134 -340 272 -342 290 -379 314
-505 318 -53 1 -94 -3 -123 -14z"/>
<path d="M2305 4105 c-155 -34 -426 -159 -692 -319 -190 -114 -249 -137 -353
-138 -95 0 -136 11 -453 122 -142 49 -263 90 -268 90 -5 0 -9 -354 -9 -880 0
-484 1 -880 3 -880 2 0 64 -18 137 -40 73 -22 134 -40 135 -40 1 0 17 30 35
67 40 81 149 194 227 236 109 58 266 81 385 56 146 -30 277 -134 339 -267 33
-71 36 -74 109 -114 97 -53 167 -126 217 -224 36 -72 44 -80 97 -108 103 -52
204 -160 242 -257 23 -58 39 -76 99 -106 119 -60 207 -151 247 -255 10 -28 23
-95 28 -148 10 -121 32 -174 103 -245 93 -92 206 -108 305 -41 62 42 92 100
92 180 0 37 -8 77 -19 101 -10 23 -81 105 -163 190 -153 159 -177 190 -159
208 12 12 132 -96 325 -292 65 -66 133 -127 151 -135 50 -24 140 -20 201 8 77
36 114 99 114 197 0 33 -6 75 -14 94 -8 19 -88 111 -178 205 -90 94 -174 189
-187 211 -51 86 16 34 228 -176 235 -232 266 -254 359 -255 90 0 162 43 203
122 25 49 25 148 0 203 -10 23 -94 119 -194 225 -153 161 -199 220 -169 220
21 0 84 -53 240 -204 101 -98 187 -173 209 -183 42 -17 135 -20 174 -5 42 17
101 73 120 117 10 22 19 60 19 85 0 107 20 84 -542 646 -372 373 -534 528
-567 545 -54 28 -172 38 -231 20 -21 -6 -132 -54 -247 -107 -421 -194 -494
-217 -621 -190 -257 53 -433 301 -393 554 16 103 58 190 128 263 61 64 128
107 538 344 121 70 222 129 225 132 11 11 -87 86 -155 118 -130 63 -282 81
-420 50z"/>
<path d="M1265 2161 c-60 -15 -111 -46 -171 -106 -160 -160 -177 -389 -36
-486 47 -32 149 -38 222 -14 28 9 53 15 55 14 2 -2 -8 -38 -22 -79 -18 -53
-23 -85 -19 -113 9 -57 41 -112 82 -144 46 -34 131 -42 219 -19 32 8 61 13 63
11 2 -2 -3 -25 -12 -51 -20 -60 -21 -175 -1 -213 47 -91 152 -120 298 -82 37
9 67 15 67 13 0 -3 -11 -36 -25 -74 -43 -120 -27 -216 47 -271 52 -38 101 -50
197 -45 70 3 99 10 153 35 134 63 217 170 226 294 9 123 -42 215 -144 265 -47
23 -69 27 -134 27 l-77 -1 9 46 c12 65 0 132 -33 191 -49 85 -121 124 -234
125 l-60 1 0 60 c-1 178 -100 278 -277 280 l-56 0 5 51 c20 188 -152 331 -342
285z"/>
</g>
</svg>
