<svg viewBox="0 0 96 96" xmlns="http://www.w3.org/2000/svg" xmlns:xlink="http://www.w3.org/1999/xlink" id="Icons_CellTower" overflow="hidden"><path d="M40 35 42.8 32.2C39.7318 29.0194 39.7318 23.9806 42.8 20.8L40 18C35.3326 22.7056 35.3326 30.2944 40 35Z"/><path d="M34.4 40.6 37.2 37.8C30.9592 31.5988 30.9271 21.5125 37.1283 15.2717 37.1521 15.2477 37.176 15.2238 37.2 15.2L34.4 12.4C26.6128 20.0772 26.5236 32.6135 34.2007 40.4007 34.2667 40.4676 34.3331 40.534 34.4 40.6Z"/><path d="M31.5 43.5C22.1651 34.0889 22.1651 18.9111 31.5 9.5L28.7 6.7C17.7648 17.6341 17.7639 35.3627 28.698 46.298 28.6987 46.2987 28.6993 46.2993 28.7 46.3Z"/><path d="M57 35C61.6674 30.2944 61.6674 22.7056 57 18L54.2 20.8C55.6951 22.3179 56.5229 24.3695 56.5 26.5 56.5035 28.6267 55.6785 30.6712 54.2 32.2Z"/><path d="M59.8 37.8 62.6 40.6C70.3872 32.9228 70.4764 20.3865 62.7993 12.5993 62.7333 12.5324 62.6669 12.466 62.6 12.4L59.8 15.2C66.0408 21.4012 66.0729 31.4875 59.8717 37.7283 59.8479 37.7523 59.824 37.7762 59.8 37.8Z"/><path d="M65.5 43.5 68.3 46.3C79.2352 35.3659 79.2361 17.6373 68.302 6.70202 68.3014 6.70135 68.3007 6.70067 68.3 6.7L65.5 9.5C74.8349 18.9111 74.8349 34.0889 65.5 43.5Z"/><path d="M79 86.71 79 86.71C78.9692 86.5324 78.9119 86.3605 78.83 86.2 78.83 86.2 78.83 86.2 78.83 86.14L50.33 30.64C50.2432 30.4773 50.1319 30.3289 50 30.2 52.0479 29.3716 53.0365 27.0398 52.2081 24.9919 51.3797 22.944 49.0479 21.9554 47 22.7838 44.9521 23.6122 43.9635 25.944 44.7919 27.9919 45.1984 28.9967 45.9952 29.7935 47 30.2 46.8932 30.3175 46.8024 30.4487 46.73 30.59L18.23 86.09C18.23 86.09 18.23 86.09 18.23 86.15 18.1481 86.3105 18.0908 86.4825 18.06 86.66L18.06 86.66C18.0351 86.8257 18.0351 86.9943 18.06 87.16 18.06 87.16 18.06 87.24 18.06 87.28 18.0872 87.4418 18.1342 87.5997 18.2 87.75 18.2 87.75 18.2 87.75 18.2 87.75 18.2 87.75 18.3 87.89 18.34 87.97 18.4009 88.0705 18.4677 88.1673 18.54 88.26L18.54 88.26C18.5909 88.3032 18.6443 88.3432 18.7 88.38 18.7864 88.4618 18.8801 88.5355 18.98 88.6 19.0581 88.6408 19.1382 88.6775 19.22 88.71L19.52 88.82 19.78 88.82 20 89 20.14 89 20.27 89C20.4532 88.9828 20.6323 88.9355 20.8 88.86L48.52 76.67 76.2 88.83C76.4511 88.9444 76.7241 89.0024 77 89L77 89C77.1656 88.997 77.3302 88.9735 77.49 88.93L77.63 88.93C77.757 88.8818 77.8807 88.825 78 88.76L78.09 88.7C78.2208 88.6176 78.3416 88.5203 78.45 88.41L78.45 88.41C78.528 88.3123 78.5982 88.2086 78.66 88.1 78.7036 88.0356 78.7437 87.9688 78.78 87.9 78.78 87.9 78.78 87.9 78.78 87.9 78.8476 87.7469 78.8947 87.5855 78.92 87.42 78.92 87.42 78.92 87.35 78.92 87.31 78.9828 87.1165 79.0099 86.9132 79 86.71ZM62 62.16 51.9 55.33 56.77 52ZM48.5 35.88 54.93 48.39 48.35 52.92 42.35 48.92C42.2198 48.8292 42.0787 48.7553 41.93 48.7ZM40.12 52.19 44.81 55.36 35 62.09ZM24.35 82.91 31.41 69.15 43.54 74.48ZM35.54 66.6 48.37 57.77 61.45 66.62 48.52 72.3ZM69.54 81.54 53.49 74.49 65.6 69.17 72.65 82.9Z"/></svg>